<?xml version="1.0" standalone="no"?>
<!DOCTYPE svg PUBLIC "-//W3C//DTD SVG 20010904//EN"
 "http://www.w3.org/TR/2001/REC-SVG-20010904/DTD/svg10.dtd">
<svg version="1.0" xmlns="http://www.w3.org/2000/svg"
 width="260.000000pt" height="260.000000pt" viewBox="0 0 260.000000 260.000000"
 preserveAspectRatio="xMidYMid meet">
<metadata>
Created by potrace 1.11, written by Peter Selinger 2001-2013
</metadata>
<g transform="translate(0.000000,260.000000) scale(0.100000,-0.100000)"
fill="#000000" stroke="none">
<path d="M1155 2043 c-140 -18 -340 -88 -469 -164 -286 -169 -445 -375 -463
-599 -13 -167 53 -287 192 -349 46 -20 190 -23 260 -5 235 62 515 324 563 528
4 17 7 60 7 96 -1 75 -20 117 -69 146 -41 25 -167 29 -238 7 -189 -56 -383
-232 -423 -382 -25 -98 0 -199 57 -229 32 -17 67 -22 73 -11 5 7 -9 13 -17 7
-2 -1 -17 6 -35 17 -40 23 -51 49 -48 107 6 87 64 187 162 281 98 95 126 115
203 154 60 30 88 38 141 40 112 4 169 -41 174 -138 6 -115 -49 -224 -180 -355
-177 -178 -357 -264 -522 -250 -293 24 -344 319 -106 616 195 244 466 408 737
448 98 14 336 7 416 -12 76 -18 240 -90 240 -105 0 -4 -22 -26 -49 -49 -163
-137 -331 -340 -522 -627 -186 -282 -249 -364 -340 -448 -211 -197 -501 -244
-676 -111 -51 39 -69 84 -64 162 2 30 16 28 17 -3 2 -36 22 -55 55 -55 48 0
86 57 74 112 -17 73 -118 59 -160 -22 -36 -69 -3 -169 74 -227 134 -103 362
-94 618 22 170 78 314 195 397 324 65 102 78 124 171 309 114 226 222 388 335
504 101 103 102 103 146 15 44 -86 37 -206 -16 -292 -30 -48 -95 -103 -148
-126 -39 -17 -53 -19 -89 -10 -50 13 -123 14 -141 3 -19 -12 -4 -41 25 -48 13
-4 56 -4 95 -1 67 5 74 4 115 -24 178 -123 157 -396 -46 -600 -80 -80 -153
-117 -241 -125 -56 -5 -71 -2 -110 18 -75 41 -100 109 -76 212 16 69 55 132
123 200 104 104 233 139 308 81 62 -46 68 -118 19 -210 -27 -52 -23 -74 6 -37
28 34 53 130 46 176 -26 160 -224 174 -381 25 -199 -188 -211 -425 -26 -487
48 -17 156 -15 225 3 185 48 355 211 382 365 30 179 -41 322 -196 394 l-53 25
44 11 c121 30 205 84 242 154 17 33 22 58 22 126 0 101 -19 145 -95 221 l-47
47 67 30 c37 17 93 38 126 48 72 21 222 24 283 6 59 -18 145 -104 163 -163 17
-57 16 -184 -1 -237 -8 -23 -11 -45 -7 -49 20 -20 46 86 46 187 0 181 -111
296 -295 307 -101 7 -187 -14 -312 -72 l-92 -43 -53 28 c-76 41 -162 71 -273
96 -34 7 -324 13 -370 7z"/>
</g>
</svg>
